<svg width="180" height="180" viewBox="0 0 180 180" fill="none" xmlns="http://www.w3.org/2000/svg">
<path fill-rule="evenodd" clip-rule="evenodd" d="M115.992 128.017C151.342 128.017 180 99.3594 180 64.0085C180 28.6576 151.342 0 115.992 0C80.6407 0 51.9831 28.6576 51.9831 64.0085C51.9831 99.3594 80.6407 128.017 115.992 128.017ZM115.992 115.603C144.487 115.603 167.587 92.5028 167.587 64.0078C167.587 35.5128 144.487 12.4131 115.992 12.4131C87.497 12.4131 64.3973 35.5128 64.3973 64.0078C64.3973 92.5028 87.497 115.603 115.992 115.603Z" fill="#D7453A"/>
<path fill-rule="evenodd" clip-rule="evenodd" d="M110.56 179.224C145.911 179.224 174.568 150.567 174.568 115.216C174.568 79.8648 145.911 51.2073 110.56 51.2073C75.2089 51.2073 46.5513 79.8648 46.5513 115.216C46.5513 150.567 75.2089 179.224 110.56 179.224ZM110.561 166.81C139.056 166.81 162.156 143.71 162.156 115.215C162.156 86.7202 139.056 63.6204 110.561 63.6204C82.0659 63.6204 58.9662 86.7202 58.9662 115.215C58.9662 143.71 82.0659 166.81 110.561 166.81Z" fill="#73BEDF"/>
<path fill-rule="evenodd" clip-rule="evenodd" d="M64.0085 155.948C99.3594 155.948 128.017 127.29 128.017 91.9393C128.017 56.5884 99.3594 27.9308 64.0085 27.9308C28.6576 27.9308 0 56.5884 0 91.9393C0 127.29 28.6576 155.948 64.0085 155.948ZM64.0094 143.533C92.5043 143.533 115.604 120.434 115.604 91.9386C115.604 63.4437 92.5043 40.3439 64.0094 40.3439C35.5144 40.3439 12.4147 63.4437 12.4147 91.9386C12.4147 120.434 35.5144 143.533 64.0094 143.533Z" fill="#5552B9"/>
</svg>
